<svg width="33" height="11" viewBox="0 0 33 11" fill="none" xmlns="http://www.w3.org/2000/svg">
<path d="M4.03232 10.9092H1.43796e-06V8.84533e-05H4.02699C5.1385 8.84533e-05 6.09553 0.218483 6.89808 0.655273C7.70419 1.08851 8.32564 1.71351 8.76243 2.53027C9.19922 3.34348 9.41762 4.31649 9.41762 5.44931C9.41762 6.58567 9.19922 7.56223 8.76243 8.37899C8.32919 9.19576 7.70952 9.82253 6.90341 10.2593C6.0973 10.6926 5.14027 10.9092 4.03232 10.9092ZM2.63672 8.66131H3.93111C4.5419 8.66131 5.0586 8.55833 5.48118 8.35236C5.90732 8.14284 6.22869 7.80371 6.44531 7.33496C6.66548 6.86266 6.77557 6.23411 6.77557 5.44931C6.77557 4.66451 6.66548 4.03951 6.44531 3.57431C6.22514 3.10556 5.90021 2.7682 5.47053 2.56223C5.04439 2.35272 4.51882 2.24796 3.89382 2.24796H2.63672V8.66131ZM20.2415 8.84533e-05V10.9092H18.0043L13.663 4.61301H13.5938V10.9092H10.957V8.84533e-05H13.2262L17.5195 6.2856H17.6101V8.84533e-05H20.2415ZM24.2591 10.9092H21.4253L25.1061 8.84533e-05H28.6164L32.2971 10.9092H29.4633L26.9012 2.74867H26.816L24.2591 10.9092ZM23.8809 6.61586H29.8042V8.6187H23.8809V6.61586Z" fill="black"/>
</svg>
